<svg width="20" height="20" viewBox="0 0 20 20" fill="none" xmlns="http://www.w3.org/2000/svg">
<path d="M13.0492 0.48118C8.89323 -0.89546 4.30826 0.777405 1.78919 4.27895C-0.751428 7.81057 -0.535831 12.7767 2.11487 16.1735C4.77224 19.5787 9.47168 20.8946 13.5158 19.3725C17.3934 17.9129 19.9722 14.1363 20.0004 10.0093C19.9707 5.6771 17.157 1.84191 13.0492 0.48118ZM11.4656 18.4952C7.40686 19.2537 3.27547 16.7734 1.88538 12.9293C0.46021 8.98832 2.17277 4.5582 5.78594 2.49548C9.44236 0.407648 14.0967 1.4417 16.7301 4.64193C17.9626 6.13949 18.5904 8.08506 18.6037 10.0094C18.5746 14.1873 15.5612 17.7298 11.4656 18.4952ZM15.0672 7.64156C14.7556 7.95283 14.444 8.26423 14.1328 8.5755C12.7341 9.97353 11.3354 11.3716 9.93669 12.7696C9.59225 13.1139 9.24799 13.458 8.90354 13.8023C8.82061 13.8852 8.72885 13.9429 8.63305 13.9805C8.00975 14.2754 7.44598 13.5068 7.04665 13.1077C6.37172 12.4332 5.69711 11.7588 5.02234 11.0843C4.76037 10.8228 4.40896 10.4821 4.57746 10.0681C4.83416 9.43671 5.51544 9.29921 5.99549 9.77912C6.61505 10.3983 7.23419 11.0174 7.85376 11.6365L8.32237 12.1051C9.44512 10.9831 10.5677 9.86083 11.6901 8.73888C12.315 8.11419 12.94 7.4895 13.565 6.86477C13.9796 6.45013 14.5306 5.72048 15.1801 6.21604C15.2129 6.24115 15.2431 6.2692 15.2707 6.2985C15.3005 6.32609 15.3281 6.35632 15.3534 6.38934C15.7122 6.85918 15.4054 7.30347 15.0672 7.64156Z" fill="#21E70F"/>
</svg>
