<svg width="24" height="24" viewBox="0 0 24 24" fill="none" xmlns="http://www.w3.org/2000/svg">
<path d="M22.6253 14.1083C22.4611 13.8259 22.0808 13.724 21.7975 13.8864L20.6643 14.5359L20.7178 14.3358C21.9986 9.55559 19.1316 4.59332 14.2987 3.29835C11.5243 2.55494 8.52663 3.1816 6.26924 4.98347C5.99643 5.19628 5.96821 5.57004 6.18305 5.84204C6.39789 6.11403 6.77379 6.14328 7.0466 5.93047C8.99702 4.37993 11.5891 3.83527 14.0057 4.4828C18.1897 5.60391 20.6627 9.88873 19.5546 14.0241L19.507 14.202L18.8504 13.073C18.6861 12.7906 18.3058 12.6887 18.0225 12.8512C17.7391 13.0136 17.6379 13.3915 17.8021 13.6738L19.1811 16.0449C19.2632 16.1861 19.4019 16.2947 19.5586 16.3367C19.7153 16.3787 19.8674 16.348 20.0314 16.2728L22.4113 14.9088C22.7168 14.7523 22.8121 14.3965 22.6256 14.1083L22.6253 14.1083Z" fill="#21E70F"/>
<path d="M16.9145 18.0589C14.9868 19.6155 12.3947 20.1602 9.97822 19.5127C5.7942 18.3916 3.3212 14.1068 4.42928 9.97137L4.47694 9.79348L5.13356 10.9225C5.21567 11.0637 5.35434 11.1723 5.51105 11.2143C5.66775 11.2563 5.81984 11.2256 5.98387 11.1504C6.26727 10.9879 6.36854 10.61 6.20429 10.3278L4.78645 7.92241C4.62223 7.64004 4.24189 7.53813 3.95863 7.70059L1.5788 9.06459C1.2954 9.22702 1.19413 9.60496 1.35839 9.88719C1.5226 10.1696 1.90294 10.2715 2.1862 10.109L3.31938 9.45952L3.26592 9.65963C1.98507 14.4398 4.85209 19.4021 9.68497 20.6971C12.4594 21.4405 15.4571 20.8138 17.7145 19.012C17.9873 18.7992 18.0155 18.4254 17.8006 18.1534C17.5572 17.8975 17.1875 17.846 16.9145 18.0589L16.9145 18.0589Z" fill="#21E70F"/>
<path d="M14.8678 10.8952L15.6336 10.1944C15.9109 9.94076 16.1623 9.60741 15.8682 9.25488C15.8475 9.2301 15.8249 9.20742 15.8005 9.18672C15.7779 9.16474 15.7531 9.14369 15.7262 9.12485C15.1938 8.75302 14.7423 9.30049 14.4024 9.6116L12.8658 11.0178C11.9458 11.8596 11.0257 12.7017 10.1055 13.5435L9.72139 13.1919L8.19831 11.7983C7.80486 11.4382 7.24647 11.5414 7.03607 12.0151C6.89797 12.3257 7.18599 12.5814 7.40071 12.7776L9.05987 14.2957C9.38716 14.5952 9.84924 15.1719 10.3601 14.9506C10.4386 14.9224 10.5138 14.8791 10.5818 14.8169L11.4286 14.0421L14.8678 10.8952Z" fill="#21E70F"/>
</svg>
