<svg width="24" height="24" viewBox="0 0 24 24" fill="none" xmlns="http://www.w3.org/2000/svg">
<path d="M11.4003 15.1518V1.60007C11.4003 1.2688 11.6689 1 12.0002 1C12.3317 1 12.6002 1.2688 12.6002 1.60007V15.1518L16.376 11.376C16.6103 11.1416 16.9901 11.1416 17.2246 11.376C17.4588 11.6103 17.4588 11.9901 17.2246 12.2246L12.4245 17.0245C12.1902 17.2587 11.8104 17.2587 11.5759 17.0245L6.77598 12.2246C6.54174 11.9901 6.54174 11.6103 6.77598 11.376C7.01022 11.1416 7.39029 11.1416 7.62455 11.376L11.4003 15.1518ZM19.8001 6.40022H15.6001C15.2688 6.40022 15.0002 6.13142 15.0002 5.80015C15.0002 5.46888 15.2688 5.20008 15.6001 5.20008H20.4002C20.7315 5.20008 21 5.46888 21 5.80015V21.3999C21 21.7314 20.7315 22 20.4002 22H3.60007C3.2688 22 3 21.7314 3 21.3999V5.80015C3 5.46888 3.2688 5.20008 3.60007 5.20008H8.39998C8.73146 5.20008 9.00005 5.46888 9.00005 5.80015C9.00005 6.13142 8.73146 6.40022 8.39998 6.40022H4.20013V20.8002H19.7999L19.8001 6.40022Z" fill="#21E70F"/>
</svg>
