<svg width="24" height="24" viewBox="0 0 24 24" fill="none" xmlns="http://www.w3.org/2000/svg">
<path d="M15.0492 2.48118C10.8932 1.10454 6.30826 2.7774 3.78919 6.27895C1.24857 9.81057 1.46417 14.7767 4.11487 18.1735C6.77224 21.5787 11.4717 22.8946 15.5158 21.3725C19.3934 19.9129 21.9722 16.1363 22.0004 12.0093C21.9707 7.6771 19.157 3.84191 15.0492 2.48118ZM13.4656 20.4952C9.40686 21.2537 5.27547 18.7734 3.88538 14.9293C2.46021 10.9883 4.17277 6.5582 7.78594 4.49548C11.4424 2.40765 16.0967 3.4417 18.7301 6.64193C19.9626 8.13949 20.5904 10.0851 20.6037 12.0094C20.5746 16.1873 17.5612 19.7298 13.4656 20.4952Z" fill="#FF3257"/>
<path d="M15.8706 14.7239L13.2007 12.054L15.8706 9.38416C16.1873 9.06744 16.1873 8.55426 15.8706 8.23754C15.5538 7.92082 15.0407 7.92082 14.7239 8.23754L12.054 10.9074L9.38416 8.23754C9.06744 7.92082 8.55426 7.92081 8.23754 8.23754C7.92082 8.55427 7.92082 9.06745 8.23754 9.38416L10.9074 12.054L8.23754 14.7239C7.92082 15.0407 7.92081 15.5538 8.23754 15.8706C8.55427 16.1873 9.06745 16.1873 9.38416 15.8706L12.054 13.2007L14.7239 15.8706C15.0407 16.1873 15.5538 16.1873 15.8706 15.8706C16.1873 15.5538 16.1873 15.0407 15.8706 14.7239Z" fill="#FF3257"/>
</svg>
