<?xml version="1.0" standalone="no"?>
<!DOCTYPE svg PUBLIC "-//W3C//DTD SVG 20010904//EN"
 "http://www.w3.org/TR/2001/REC-SVG-20010904/DTD/svg10.dtd">
<svg version="1.0" xmlns="http://www.w3.org/2000/svg"
 width="670.000000pt" height="670.000000pt" viewBox="0 0 670.000000 670.000000"
 preserveAspectRatio="xMidYMid meet">
<metadata>
Created by potrace 1.14, written by Peter Selinger 2001-2017
</metadata>
<g transform="translate(0.000000,670.000000) scale(0.100000,-0.100000)"
fill="#000000" stroke="none">
<path d="M1606 4817 c16 -18 40 -48 54 -67 28 -38 72 -93 80 -100 3 -3 28 -34
55 -70 28 -36 55 -70 60 -76 6 -6 24 -28 40 -48 108 -138 178 -225 200 -251
14 -16 46 -58 72 -92 27 -34 52 -62 56 -63 4 0 15 15 23 33 8 17 39 77 68 132
l53 100 1274 1 1273 1 34 64 c19 35 81 155 139 267 l104 202 -1806 0 -1807 0
28 -33z"/>
<path d="M2891 3610 c-4 -3 -27 -45 -50 -95 -58 -121 -65 -137 -79 -160 -6
-11 -37 -74 -68 -140 -32 -66 -58 -122 -60 -125 -1 -3 276 -5 615 -5 l618 0
65 125 c35 69 97 187 136 263 40 75 72 138 72 140 0 4 -1242 2 -1249 -3z"/>
<path d="M4497 2563 c-25 -49 -56 -110 -68 -136 -14 -31 -27 -46 -35 -43 -8 3
-14 1 -14 -5 0 -6 -5 -7 -11 -3 -15 9 -309 11 -309 2 0 -4 -7 -5 -16 -1 -25 9
-1584 9 -1584 0 0 -5 -5 -5 -11 -1 -16 10 -309 11 -309 1 0 -5 -5 -5 -11 -1
-9 5 -202 9 -277 5 -7 -1 -69 -117 -138 -258 -70 -142 -129 -261 -131 -266 -2
-4 809 -7 1802 -7 1422 0 1805 3 1797 13 -58 74 -339 428 -355 448 -12 14 -34
41 -49 60 -14 19 -35 44 -45 56 -10 12 -29 37 -43 55 -14 18 -33 40 -42 50
-10 10 -18 21 -18 26 -1 7 -76 92 -82 92 -2 0 -25 -39 -51 -87z"/>
</g>
</svg>
