<?xml version="1.0" standalone="no"?>
<!DOCTYPE svg PUBLIC "-//W3C//DTD SVG 20010904//EN"
        "http://www.w3.org/TR/2001/REC-SVG-20010904/DTD/svg10.dtd">
<svg version="1.0" xmlns="http://www.w3.org/2000/svg"
     width="512.000000pt" height="512.000000pt" viewBox="0 0 512.000000 512.000000"
     preserveAspectRatio="xMidYMid meet">
    <metadata>
        Created by potrace 1.14, written by Peter Selinger 2001-2017
    </metadata>
    <g transform="translate(0.000000,512.000000) scale(0.100000,-0.100000)"
       fill="#000000" stroke="none">
        <path d="M87 4980 c-16 -38 -17 -179 -15 -2465 l3 -2424 23 -23 23 -23 2439 0
2439 0 23 23 23 23 3 2424 c2 2286 1 2427 -15 2465 l-18 40 -2455 0 -2455 0
-18 -40z m3513 -1529 c0 -5 -25 -57 -57 -115 l-56 -106 -788 0 c-886 0 -799 8
-845 -81 -13 -27 -28 -49 -32 -49 -7 0 -266 315 -285 347 -7 11 170 13 1028
13 603 0 1035 -4 1035 -9z m-660 -772 c0 -7 -25 -58 -56 -115 l-55 -104 -335
0 c-183 0 -334 2 -334 4 0 8 93 202 102 214 14 17 678 18 678 1z m500 -799
c74 -92 136 -173 138 -179 3 -8 -285 -11 -1037 -11 l-1040 0 25 55 c13 31 38
82 54 115 l30 60 768 0 c503 0 780 4 805 11 31 8 43 20 68 65 17 29 36 54 42
53 7 0 73 -76 147 -169z"/>
    </g>
</svg>
