<svg width="1100" height="200" viewBox="0 0 1100 200" fill="none" xmlns="http://www.w3.org/2000/svg">
    <g clip-path="url(#clip0_749_1101)">
        <path d="M93.6953 91.1546L85.0044 108.869H126.2L135.405 91.1541L93.6953 91.1546Z" fill="#2AAAFD"/>
        <path d="M148.929 123.026L144.156 132.285H58.6822L50 150H135.281L135.298 149.968L170.41 149.936L148.929 123.026Z" fill="#2AAAFD"/>
        <path d="M85.3766 50.0001L50.0242 50.0319L71.5046 76.9412L76.246 67.731H161.175L170.386 50.016H85.3608L85.3766 50.0001Z" fill="#2AAAFD"/>
        <path d="M243.473 50.1627H280.006L271.14 100.388C269.51 109.473 266.758 117.18 262.886 123.51C259.115 129.737 254.377 134.841 248.67 138.822C242.963 142.701 236.34 145.56 228.798 147.397C221.257 149.132 213.003 150 204.035 150H186.151L191.501 119.988H212.595C219.627 119.477 224.773 117.589 228.034 114.322C231.397 110.953 233.588 106.308 234.607 100.388L243.473 50.1627Z" fill="url(#paint0_linear_749_1101)"/>
        <path d="M368.611 113.25H316.639L315.568 119.988H371.668L366.318 150H273.991L291.57 50.1627H383.896L378.546 80.1751H322.447L321.377 86.9126H373.349L368.611 113.25Z" fill="url(#paint1_linear_749_1101)"/>
        <path d="M426.409 80.1751H449.796C453.363 80.1751 455.809 80.9918 457.134 82.6251C458.56 84.2585 459.274 86.4022 459.274 89.0564C459.274 90.8939 459.121 92.7824 458.815 94.722L456.828 105.594C456.522 107.533 456.064 109.371 455.452 111.106C454.943 112.842 454.127 114.373 453.006 115.7C451.987 117.027 450.663 118.099 449.032 118.916C447.402 119.63 445.364 119.988 442.918 119.988H419.53L426.409 80.1751ZM377.953 150H457.286C460.242 150 463.503 149.132 467.069 147.397C470.738 145.662 474.203 143.467 477.464 140.813C480.725 138.056 483.527 134.994 485.871 131.625C488.317 128.256 489.845 124.939 490.457 121.672L497.947 78.4908C498.049 77.9804 498.1 77.521 498.1 77.1126C498.202 76.6022 498.253 76.0918 498.253 75.5814C498.253 72.5189 497.539 69.5074 496.113 66.547C494.686 63.4845 492.801 60.7283 490.457 58.2783C488.215 55.8283 485.718 53.8887 482.967 52.4595C480.215 50.9283 477.515 50.1627 474.865 50.1627H395.532L377.953 150Z" fill="url(#paint2_linear_749_1101)"/>
        <path d="M533.219 150L550.798 50.1627H514.57L496.992 150H533.219Z" fill="url(#paint3_linear_749_1101)"/>
        <path d="M544.826 150H617.892C620.745 150 623.446 149.49 625.994 148.469C628.643 147.448 630.987 146.019 633.025 144.181C635.063 142.344 636.796 140.2 638.222 137.75C639.649 135.3 640.617 132.595 641.127 129.635C641.432 127.695 641.585 125.806 641.585 123.969C641.585 119.886 640.821 116.006 639.292 112.331C637.866 108.656 635.98 105.083 633.637 101.613C631.293 98.0397 628.694 94.5178 625.841 91.047C623.089 87.5762 620.389 83.9522 617.739 80.1751H660.998L666.348 50.1627H601.078C598.122 50.1627 595.218 50.7752 592.365 52.0002C589.511 53.1231 586.913 54.7054 584.569 56.747C582.225 58.7887 580.187 61.2387 578.454 64.097C576.824 66.8533 575.703 69.8647 575.092 73.1314C574.786 74.5606 574.633 75.7856 574.633 76.8064V77.7251C574.939 81.7064 575.958 85.5856 577.69 89.3626C579.525 93.1397 581.665 96.8147 584.11 100.388C586.556 103.858 589.155 107.227 591.906 110.494C594.759 113.761 597.358 116.925 599.702 119.988H550.176L544.826 150Z" fill="url(#paint4_linear_749_1101)"/>
        <path d="M774.158 87.9845L768.349 50.1627H736.249L716.53 87.9845L710.874 50.1627H675.105L688.71 150H724.784L742.363 110.647L746.185 150H782.259L831.021 50.1627H793.724L774.158 87.9845Z" fill="url(#paint5_linear_749_1101)"/>
        <path d="M883.135 134.688H846.144L838.195 150H800.897L849.659 50.1627H907.746L921.35 150H885.581L883.135 134.688ZM858.831 108.044H879.773L874.881 76.5001L858.831 108.044Z" fill="url(#paint6_linear_749_1101)"/>
        <path d="M966.233 150H930.006L947.585 50.1627H1024.78C1028.24 50.1627 1031.5 50.9283 1034.56 52.4595C1037.62 53.9908 1040.27 56.0324 1042.51 58.5845C1044.85 61.1366 1046.69 63.9949 1048.01 67.1595C1049.34 70.3241 1050 73.5397 1050 76.8064C1050 77.4189 1049.95 78.0314 1049.85 78.6439C1049.85 79.2564 1049.8 79.8689 1049.69 80.4814L1047.55 92.5783C1046.94 95.947 1045.41 99.4689 1042.97 103.144C1040.52 106.717 1037.57 109.983 1034.1 112.944C1030.74 115.904 1027.07 118.354 1023.1 120.294C1019.22 122.131 1015.5 123.05 1011.94 123.05H970.972L966.233 150ZM976.169 93.497H1000.78C1004.55 93.497 1007.15 92.9356 1008.58 91.8126C1010 90.6897 1010.97 89.0564 1011.48 86.9126L1011.63 85.3814C1011.63 83.7481 1011.07 82.472 1009.95 81.5533C1008.83 80.6345 1006.54 80.1751 1003.07 80.1751H978.462L976.169 93.497Z" fill="url(#paint7_linear_749_1101)"/>
    </g>
    <defs>
        <linearGradient id="paint0_linear_749_1101" x1="179.24" y1="106.669" x2="1046.55" y2="103.684" gradientUnits="userSpaceOnUse">
            <stop stop-color="#2BA9FD"/>
            <stop offset="0.524146" stop-color="#8462F5"/>
            <stop offset="1" stop-color="#EF0DEB"/>
        </linearGradient>
        <linearGradient id="paint1_linear_749_1101" x1="179.24" y1="106.669" x2="1046.55" y2="103.684" gradientUnits="userSpaceOnUse">
            <stop stop-color="#2BA9FD"/>
            <stop offset="0.524146" stop-color="#8462F5"/>
            <stop offset="1" stop-color="#EF0DEB"/>
        </linearGradient>
        <linearGradient id="paint2_linear_749_1101" x1="179.24" y1="106.669" x2="1046.55" y2="103.684" gradientUnits="userSpaceOnUse">
            <stop stop-color="#2BA9FD"/>
            <stop offset="0.524146" stop-color="#8462F5"/>
            <stop offset="1" stop-color="#EF0DEB"/>
        </linearGradient>
        <linearGradient id="paint3_linear_749_1101" x1="179.24" y1="106.669" x2="1046.55" y2="103.684" gradientUnits="userSpaceOnUse">
            <stop stop-color="#2BA9FD"/>
            <stop offset="0.524146" stop-color="#8462F5"/>
            <stop offset="1" stop-color="#EF0DEB"/>
        </linearGradient>
        <linearGradient id="paint4_linear_749_1101" x1="179.24" y1="106.669" x2="1046.55" y2="103.684" gradientUnits="userSpaceOnUse">
            <stop stop-color="#2BA9FD"/>
            <stop offset="0.524146" stop-color="#8462F5"/>
            <stop offset="1" stop-color="#EF0DEB"/>
        </linearGradient>
        <linearGradient id="paint5_linear_749_1101" x1="179.24" y1="106.669" x2="1046.55" y2="103.684" gradientUnits="userSpaceOnUse">
            <stop stop-color="#2BA9FD"/>
            <stop offset="0.524146" stop-color="#8462F5"/>
            <stop offset="1" stop-color="#EF0DEB"/>
        </linearGradient>
        <linearGradient id="paint6_linear_749_1101" x1="179.24" y1="106.669" x2="1046.55" y2="103.684" gradientUnits="userSpaceOnUse">
            <stop stop-color="#2BA9FD"/>
            <stop offset="0.524146" stop-color="#8462F5"/>
            <stop offset="1" stop-color="#EF0DEB"/>
        </linearGradient>
        <linearGradient id="paint7_linear_749_1101" x1="179.24" y1="106.669" x2="1046.55" y2="103.684" gradientUnits="userSpaceOnUse">
            <stop stop-color="#2BA9FD"/>
            <stop offset="0.524146" stop-color="#8462F5"/>
            <stop offset="1" stop-color="#EF0DEB"/>
        </linearGradient>
        <clipPath id="clip0_749_1101">
            <rect width="1100" height="200" fill="white"/>
        </clipPath>
    </defs>
</svg>
