<svg width="359" height="177" fill="none" xmlns="http://www.w3.org/2000/svg"><rect x="43" y="1" width="270" height="169" rx="24" fill="url(#a)"/><mask id="c" style="mask-type:alpha" maskUnits="userSpaceOnUse" x="43" y="1" width="271" height="169"><rect x="43" y="1" width="270.379" height="168.987" rx="24" fill="url(#b)"/></mask><g mask="url(#c)"><path fill="url(#d)" fill-opacity=".2" d="M43 1h129v169H43z"/></g><path fill-rule="evenodd" clip-rule="evenodd" d="M219.888 26.69H172V25h47.888c4.176 0 7.562 3.404 7.562 7.604v18.165c0 3.266 2.633 5.914 5.881 5.914h44.108c4.176 0 7.561 3.405 7.561 7.604V99.35c0 4.199-3.385 7.604-7.561 7.604h-7.142c-3.248 0-5.881 2.648-5.881 5.914v8.871c0 4.2-3.385 7.604-7.561 7.604h-34.866c-3.248 0-5.881 2.648-5.881 5.914v10.139c0 4.2-3.386 7.604-7.562 7.604H172v-1.69h36.546c3.248 0 5.882-2.648 5.882-5.914v-10.139c0-4.199 3.385-7.604 7.561-7.604h34.866c3.248 0 5.881-2.647 5.881-5.914v-8.871c0-4.2 3.385-7.604 7.561-7.604h7.142c3.248 0 5.881-2.648 5.881-5.914V64.287c0-3.266-2.633-5.914-5.881-5.914h-44.108c-4.176 0-7.561-3.404-7.561-7.604V32.604c0-3.266-2.634-5.914-5.882-5.914zM260 25.421V1h1.669v24.421c0 3.256 2.616 5.895 5.843 5.895H313V33h-45.488c-4.149 0-7.512-3.393-7.512-7.579z" fill="#9A92D2" fill-opacity=".4"/><ellipse cx="62.5" cy="20" rx="5.5" ry="5" fill="#EA3527"/><path d="M199.464 66.794c.576.633.688 1.33.336 2.09l-25.908 54.929c-.416.791-1.087 1.187-2.015 1.187-.128 0-.352-.032-.672-.095-.543-.158-.951-.459-1.223-.902a1.784 1.784 0 0 1-.216-1.424l9.452-38.36-19.479 4.794c-.128.032-.32.048-.576.048-.576 0-1.071-.174-1.487-.523-.576-.474-.784-1.091-.624-1.851l9.644-39.168c.128-.443.383-.807.767-1.092a2.194 2.194 0 0 1 1.344-.427h15.736c.608 0 1.12.198 1.535.593.416.396.624.863.624 1.401 0 .253-.08.538-.24.855l-8.204 21.98 18.999-4.652c.256-.063.448-.095.576-.095.607 0 1.151.238 1.631.713z" fill="url(#e)"/><circle cx="78" cy="20" r="5" fill="#EFAA42"/><circle cx="93" cy="20" r="5" fill="#65C4B0"/><path fill-rule="evenodd" clip-rule="evenodd" d="M7.5 6.35A1.513 1.513 0 0 0 5.72 8.797l4.895 3.557-3.557 4.894a1.512 1.512 0 1 0 2.446 1.778l3.557-4.894 4.893 3.556a1.512 1.512 0 1 0 1.778-2.447l-4.892-3.556 3.556-4.893a1.512 1.512 0 1 0-2.447-1.778l-3.556 4.893L7.499 6.35z" fill="#fff" fill-opacity=".3"/><path d="M348.223 136.347c5.952-2.649 8.63-9.622 5.981-15.574-2.649-5.952-9.621-8.63-15.574-5.981-5.952 2.649-8.63 9.621-5.981 15.573 2.649 5.953 9.622 8.63 15.574 5.982z" fill="url(#f)"/><path fill-rule="evenodd" clip-rule="evenodd" d="M29.42 169.197a5.444 5.444 0 1 0-4.426-9.948 5.445 5.445 0 0 0 4.427 9.948zm1.477 3.316a9.074 9.074 0 1 0-7.38-16.58 9.074 9.074 0 1 0 7.38 16.58z" fill="#fff" fill-opacity=".3"/><circle cx="288" cy="32" r="4" fill="#9A92D2"/><path d="M244 58a4 4 0 1 1-8 0 4 4 0 0 1 8 0z" fill="#57CCFF"/><path fill-rule="evenodd" clip-rule="evenodd" d="M241 59v10.286c0 4.26-3.421 7.714-7.642 7.714H196v-1.714h37.358c3.283 0 5.944-2.687 5.944-6V59H241z" fill="url(#g)"/><path d="M255 128a4 4 0 1 0 8 0 4 4 0 0 0-8 0zM199 152a4 4 0 1 0 8 0 4 4 0 0 0-8 0z" fill="#57CCFF"/><path fill-rule="evenodd" clip-rule="evenodd" d="M258 131v10.286c0 4.26 3.358 7.714 7.5 7.714H313v-1.714h-47.5c-3.222 0-5.833-2.687-5.833-6V131H258z" fill="url(#h)"/><path fill-rule="evenodd" clip-rule="evenodd" d="M204 154v16h-2v-16h2z" fill="url(#i)"/><defs><linearGradient id="a" x1="57.766" y1="-31.955" x2="376.826" y2="340.646" gradientUnits="userSpaceOnUse"><stop stop-color="#8989DD"/><stop offset="1" stop-color="#A4BCEE" stop-opacity="0"/></linearGradient><linearGradient id="b" x1="57.786" y1="-31.952" x2="376.749" y2="341.086" gradientUnits="userSpaceOnUse"><stop stop-color="#8989DD"/><stop offset="1" stop-color="#A4BCEE" stop-opacity="0"/></linearGradient><linearGradient id="d" x1="46.819" y1="93.105" x2="342.161" y2="93.105" gradientUnits="userSpaceOnUse"><stop stop-color="#fff"/><stop offset="1" stop-color="#fff" stop-opacity="0"/></linearGradient><linearGradient id="e" x1="165.01" y1="53.984" x2="201.847" y2="84.955" gradientUnits="userSpaceOnUse"><stop stop-color="#2BA9FD"/><stop offset=".524" stop-color="#8462F5"/><stop offset="1" stop-color="#EF0DEB"/></linearGradient><linearGradient id="f" x1="332.645" y1="121.428" x2="356.604" y2="130.63" gradientUnits="userSpaceOnUse"><stop stop-color="#8082D0"/><stop offset=".307" stop-color="#7478C1" stop-opacity=".62"/><stop offset="1" stop-color="#D9D9D9" stop-opacity="0"/></linearGradient><linearGradient id="g" x1="196.425" y1="78.286" x2="243.208" y2="63.119" gradientUnits="userSpaceOnUse"><stop stop-color="#E200FF"/><stop offset="1" stop-color="#50D5FF"/></linearGradient><linearGradient id="h" x1="296.798" y1="150.286" x2="255.206" y2="138.579" gradientUnits="userSpaceOnUse"><stop stop-color="#E200FF"/><stop offset="1" stop-color="#50D5FF"/></linearGradient><linearGradient id="i" x1="203" y1="183.474" x2="203.911" y2="157.822" gradientUnits="userSpaceOnUse"><stop stop-color="#E200FF"/><stop offset="1" stop-color="#50D5FF"/></linearGradient></defs></svg>