<svg width="80" height="80" viewBox="0 0 80 80" fill="none" xmlns="http://www.w3.org/2000/svg">
<path d="M50.0204 69.8467C55.3339 68.0683 58.0392 76.1486 52.7246 77.9271C47.8843 79.5534 42.7386 80.231 37.6419 79.9308C15.5986 78.6287 -1.23133 59.6866 0.0707362 37.6432C1.3728 15.5997 20.3148 -1.23134 42.3581 0.0707325C64.4015 1.3728 81.2313 20.3149 79.9293 42.3583C79.825 44.14 79.5905 46.0112 79.2454 47.7616C78.1696 53.2732 69.788 51.6386 70.8638 46.1259C71.1495 44.6821 71.3288 43.3268 71.4153 41.8579C72.439 24.5297 59.1869 9.60848 41.8577 8.5858C24.5295 7.56207 9.60843 20.8142 8.58576 38.1436C7.56203 55.4718 20.8131 70.393 38.1423 71.4157C42.1851 71.6544 46.1799 71.1363 50.0204 69.8467Z" fill="#50D5FF"/>
</svg>
