<svg width="20" height="20" viewBox="0 0 20 20" fill="none" xmlns="http://www.w3.org/2000/svg">
<path fill-rule="evenodd" clip-rule="evenodd" d="M16.4471 2L9.141 9.30608C8.71212 9.73496 8.7115 10.4321 9.14108 10.8616C9.56978 11.2903 10.2671 11.2913 10.6966 10.8617L18 3.55835V6.00079C18 6.55147 18.4477 7 19 7C19.5512 7 20 6.55264 20 6.00079V0.99921C20 0.724001 19.8882 0.474306 19.7074 0.293359C19.5263 0.112103 19.2766 0 19.0008 0H13.9992C13.4485 0 13 0.447715 13 1C13 1.55116 13.4474 2 13.9992 2H16.4471ZM20 12V7.24629V17.5074C20 18.884 19.0082 20 17.7832 20H2.21677C0.99248 20 0 18.8819 0 17.5074V2.49258C0 1.11596 0.991803 0 2.21677 0H12.8916H8C8.55229 0 9 0.447715 9 1C9 1.55228 8.55229 2 8 2H2.56945C2.25132 2 2 2.29868 2 2.66713V17.3329C2 17.6947 2.25495 18 2.56945 18H17.4306C17.7487 18 18 17.7013 18 17.3329V12C18 11.4477 18.4477 11 19 11C19.5523 11 20 11.4477 20 12Z" fill="#50D5FF"/>
</svg>
