<svg width="28" height="28" viewBox="0 0 28 28" fill="none" xmlns="http://www.w3.org/2000/svg">
<path d="M14.8696 27.3333H13.1409C12.5986 27.3331 12.0947 27.054 11.807 26.5945C11.6816 26.3971 10.916 25.1143 10.5266 24.3541L9.14468 23.7859C8.30173 24.0527 6.78379 24.4313 6.65298 24.4633C6.1232 24.5851 5.56774 24.4261 5.18311 24.0419L3.95868 22.8177C3.57404 22.4333 3.41475 21.8778 3.53719 21.3481C3.5906 21.1187 3.95328 19.6705 4.21474 18.8569L3.64642 17.4807C2.84606 17.0753 1.5122 16.2671 1.40559 16.2004C0.945956 15.9128 0.666817 15.4088 0.666626 14.8668V13.1331C0.666812 12.5909 0.945941 12.0871 1.40559 11.7995C1.60302 11.6741 2.88608 10.9087 3.64642 10.5193L4.21474 9.14303C3.9479 8.30024 3.5692 6.7826 3.53719 6.65181C3.4153 6.12194 3.57441 5.56679 3.95868 5.18223L5.18311 3.95803V3.95785C5.56757 3.57329 6.1232 3.41403 6.65298 3.53644C6.88242 3.58984 8.33093 3.95245 9.14468 4.21387L10.5212 3.64566C10.9267 2.84545 11.735 1.51185 11.8016 1.40525V1.40544C12.0893 0.945901 12.5934 0.666626 13.1355 0.666626H14.8642C15.4065 0.666626 15.9104 0.945887 16.1981 1.40544C16.3235 1.60284 17.0891 2.88564 17.4785 3.64584L18.855 4.21405C19.698 3.94726 21.2159 3.56864 21.3467 3.53663L21.3469 3.53644C21.8767 3.41458 22.432 3.57384 22.8168 3.95785L24.0412 5.18205V5.18223C24.4259 5.56661 24.5852 6.12194 24.4627 6.65181C24.4093 6.88121 24.0466 8.32944 23.7852 9.14303L24.3535 10.5193C25.1539 10.9247 26.4877 11.7328 26.5943 11.7995C27.054 12.0871 27.3331 12.5909 27.3333 13.1331V14.8615C27.3331 15.4036 27.054 15.9074 26.5943 16.1951C26.3969 16.3205 25.1138 17.0859 24.3535 17.4753L23.7958 18.8569C24.0626 19.6997 24.4413 21.2173 24.4733 21.3481C24.5952 21.8778 24.4361 22.4331 24.0519 22.8177L22.8274 24.0419C22.4428 24.4261 21.8873 24.5851 21.3576 24.4633C21.1281 24.4099 19.6796 24.0473 18.8659 23.7859L17.4894 24.3541C17.0839 25.1543 16.2755 26.4879 16.2089 26.5945C15.9201 27.0557 15.4138 27.335 14.8697 27.3333H14.8696ZM9.18451 22.2018L11.6042 23.2072L11.7242 23.474C11.9696 24.0074 12.8552 25.5064 13.0581 25.8132V25.813C13.0769 25.8435 13.1104 25.8617 13.1461 25.8611H14.8748C14.9105 25.8617 14.9439 25.8435 14.9628 25.813C15.1203 25.5622 16.0298 24.0419 16.2967 23.4738L16.4167 23.207L18.8444 22.2014L19.1112 22.3C19.6636 22.5028 21.3469 22.9348 21.7016 23.0202L21.7014 23.0206C21.735 23.0304 21.7715 23.02 21.7948 22.9938L23.0192 21.7696C23.0449 21.746 23.0551 21.7099 23.046 21.6762C22.9794 21.3908 22.5471 19.6704 22.3257 19.0864L22.2271 18.8196L23.2275 16.3978L23.4943 16.2778C24.0278 16.0324 25.5271 15.147 25.8339 14.9442H25.8338C25.8641 14.9254 25.8823 14.8919 25.8818 14.8562V13.1278C25.8823 13.092 25.8641 13.0587 25.8338 13.0398C25.5829 12.8824 24.0624 11.973 23.4941 11.7062L23.2273 11.5862L22.2215 9.15896L22.3201 8.89216C22.5229 8.33996 22.955 6.65695 23.0404 6.30236L23.0406 6.30254C23.0483 6.26887 23.0382 6.23371 23.014 6.20915L21.7896 4.98495H21.7894C21.7658 4.95928 21.7299 4.94904 21.6962 4.95816C21.4107 5.02476 19.6954 5.45697 19.1059 5.67835L18.839 5.77696L16.406 4.77676L16.2859 4.50996C16.0405 3.97657 15.1549 2.47755 14.9521 2.17078V2.17096C14.9333 2.14064 14.8998 2.1224 14.864 2.12296H13.1461C13.1104 2.1224 13.0769 2.14064 13.0581 2.17096C12.9007 2.42176 11.9911 3.94198 11.7242 4.51015L11.6042 4.77694L9.17655 5.78253L8.9097 5.68392C8.35739 5.48113 6.67406 5.04913 6.31939 4.96373V4.96354C6.28571 4.95368 6.24942 4.96391 6.22598 4.99015L5.00154 6.21434V6.21453C4.97586 6.23816 4.96563 6.27407 4.97493 6.30774C5.04155 6.59314 5.47384 8.31352 5.69526 8.89755L5.79389 9.16434L4.79349 11.5969L4.52664 11.7169C3.99315 11.9623 2.49384 12.8477 2.187 13.0505H2.18719C2.15667 13.0693 2.13844 13.1028 2.139 13.1385V14.8669C2.13844 14.9026 2.15667 14.9359 2.18719 14.9549C2.43803 15.1123 3.95856 16.0217 4.52683 16.2885L4.79368 16.4085L5.79946 18.8357L5.70083 19.1025C5.498 19.6547 5.06592 21.3377 4.9805 21.6923L4.98013 21.6921C4.97268 21.7258 4.98273 21.761 5.00692 21.7855L6.23136 23.0097C6.25499 23.0354 6.29109 23.0456 6.32477 23.0365C6.61023 22.9699 8.32557 22.5377 8.91508 22.3163L9.18451 22.2018ZM14.005 20.228C12.3522 20.228 10.7671 19.5716 9.59848 18.4031C8.42968 17.2347 7.77319 15.6499 7.77319 13.9974C7.77319 12.3449 8.42968 10.7601 9.59848 9.59177C10.7671 8.4232 12.3522 7.76683 14.005 7.76683C15.6578 7.76683 17.2429 8.4232 18.4115 9.59177C19.5803 10.7601 20.2368 12.3449 20.2368 13.9974C20.234 15.649 19.5766 17.2321 18.4083 18.3999C17.2402 19.5679 15.6568 20.2252 14.0049 20.228L14.005 20.228ZM14.005 9.24199C12.7435 9.24199 11.5336 9.74304 10.6417 10.6349C9.74954 11.5267 9.24844 12.7364 9.24844 13.9976C9.24844 15.2589 9.74959 16.4685 10.6417 17.3603C11.5336 18.2522 12.7435 18.7532 14.005 18.7532C15.2665 18.7532 16.4764 18.2522 17.3683 17.3603C18.2604 16.4685 18.7615 15.2589 18.7615 13.9976C18.76 12.7367 18.2585 11.528 17.3668 10.6365C16.4752 9.74494 15.2661 9.24351 14.005 9.24203L14.005 9.24199Z" fill="white"/>
</svg>
