<svg width="14" height="14" viewBox="0 0 14 14" fill="none" xmlns="http://www.w3.org/2000/svg">
<path d="M7.00002 8.04665L1.65295 13.3904C1.5163 13.53 1.3273 13.6059 1.13201 13.5995C0.938299 13.5978 0.753004 13.5198 0.616214 13.3828C0.479421 13.2457 0.402109 13.0602 0.400827 12.8666C0.399543 12.6731 0.474572 12.4866 0.609656 12.3477L5.95673 7.00399L0.609656 1.66023C0.470011 1.52367 0.393984 1.33478 0.4004 1.13962C0.395978 0.94446 0.471577 0.75585 0.609798 0.617722C0.74802 0.479593 0.936732 0.404034 1.13202 0.408453C1.3273 0.402038 1.51628 0.478017 1.65296 0.617579L7.00003 5.96133L12.3471 0.617579C12.4846 0.478448 12.6719 0.400045 12.8676 0.399903C13.0632 0.39976 13.2507 0.478021 13.3883 0.61701C13.5258 0.755999 13.6019 0.944168 13.5996 1.1396C13.6061 1.33475 13.53 1.52362 13.3904 1.66022L8.04332 7.00397L13.3904 12.3477C13.5666 12.536 13.6316 12.8023 13.562 13.0505C13.4925 13.2986 13.2985 13.4924 13.0503 13.5619C12.802 13.6314 12.5355 13.5664 12.3471 13.3904L7.00002 8.04665Z" fill="white"/>
</svg>
