<svg width="12" height="21" viewBox="0 0 12 21" fill="none" xmlns="http://www.w3.org/2000/svg">
<path d="M11.3649 5.94867C11.5123 6.11236 11.5409 6.29242 11.4509 6.48885L4.82142 20.6931C4.71503 20.8977 4.54315 21 4.3058 21C4.27306 21 4.21577 20.9918 4.13393 20.9755C3.99479 20.9345 3.89044 20.8568 3.82087 20.7422C3.7513 20.6276 3.73288 20.5048 3.76562 20.3739L6.18415 10.4543L1.19978 11.6942C1.16704 11.7024 1.11793 11.7065 1.05245 11.7065C0.905133 11.7065 0.778273 11.6615 0.671874 11.5714C0.524553 11.4487 0.471354 11.2891 0.512276 11.0926L2.97991 0.964299C3.01265 0.849715 3.07812 0.755593 3.17634 0.681933C3.27455 0.608272 3.38913 0.571442 3.52009 0.571442H7.54687C7.70238 0.571442 7.83333 0.622595 7.93973 0.724901C8.04613 0.827208 8.09932 0.94793 8.09932 1.08707C8.09932 1.15254 8.07886 1.2262 8.03794 1.30805L5.93861 6.9922L10.8002 5.78908C10.8657 5.77271 10.9148 5.76452 10.9475 5.76452C11.103 5.76452 11.2422 5.82591 11.3649 5.94867Z" fill="white"/>
</svg>
