<svg width="10" height="19" viewBox="0 0 10 19" fill="#ffffff" xmlns="http://www.w3.org/2000/svg">
    <path d="M9.68229 4.79145C9.81356 4.9373 9.83909 5.09775 9.75887 5.27278L3.85161 17.9296C3.7568 18.112 3.60365 18.2031 3.39216 18.2031C3.36298 18.2031 3.31193 18.1958 3.239 18.1812C3.11502 18.1448 3.02204 18.0755 2.96005 17.9734C2.89806 17.8713 2.88165 17.7619 2.91082 17.6452L5.06588 8.8062L0.624495 9.91107C0.595324 9.91837 0.551566 9.92201 0.493223 9.92201C0.36195 9.92201 0.24891 9.8819 0.154102 9.80168C0.02283 9.69229 -0.0245739 9.55007 0.0118906 9.37504L2.2107 0.35006C2.23988 0.247959 2.29822 0.164091 2.38573 0.0984544C2.47325 0.0328181 2.57535 0 2.69204 0H6.28015C6.41871 0 6.5354 0.0455807 6.63021 0.136742C6.72502 0.227904 6.77242 0.335474 6.77242 0.459454C6.77242 0.517797 6.75419 0.583433 6.71772 0.656363L4.84709 5.72129L9.17908 4.64923C9.23742 4.63465 9.28118 4.62736 9.31035 4.62736C9.44892 4.62736 9.5729 4.68205 9.68229 4.79145Z"/>
</svg>
